Sammy's Avonturen: De Geheime Doorgang (2010) Alternatieve titels: Sammy's Adventures: The Secret Passage 3D, Sammy's Avonturen: De Geheime Doorgang 3D 

A sea turtle who was hatched in 1959 spends the next 50 years traveling the world while it is being changed by global warming..
 
http://www.imdb.com/title/tt1230204/

Audio : Dutch

Cover included.

Na zijn geboorte op een strand in Californië, kruipt Sammy de schildpad naar zee en vindt daar de liefde van zijn leven, Shelly. Hij raakt haar echter meteen ook weer kwijt. Tijdens zijn reis die alle zeeschildpadden afleggen voordat ze weer terugkeren naar het strand waar ze geboren zijn, komt Sammy veel gevaren tegen, waaronder mensen. Maar gelukkig redden andere mensen hem ook weer. Al die tijd blijft hij hopen dat hij Shelly terugvindt. Samen met zijn vriendje Ray vecht hij met piranhas, ontsnapt aan een roofvogel en gaat op zoek naar een mysterieuze geheime doorgang.
 
http://www.moviemeter.nl/film/56766

Audio : Nederlands.

Hoesje bijgevoegd.

General
Complete name                    : Sammys Avonturen-De Geheime Doorgang-AC3-DVDRip[Ned]2010\Sammys Avonturen-De Geheime Doorgang-AC3-DVDRip[Ned]2010.avi
Format                           : AVI
Format/Info                      : Audio Video Interleave
File size                        : 1.27 GiB
Duration                         : 1h 16mn
Overall bit rate                 : 2 374 Kbps
Writing application              : VirtualDubMod 1.5.4.1 (build 2178/release)
Writing library                  : VirtualDubMod build 2178/release

Video
ID                               : 0
Format                           : MPEG-4 Visual
Format profile                   : Simple@L3
Format settings, BVOP            : No
Format settings, QPel            : No
Format settings, GMC             : No warppoints
Format settings, Matrix          : Default (H.263)
Codec ID                         : XVID
Codec ID/Hint                    : XviD
Duration                         : 1h 16mn
Bit rate                         : 1 917 Kbps
Width                            : 720 pixels
Height                           : 400 pixels
Display aspect ratio             : 16:9
Frame rate                       : 25.000 fps
Resolution                       : 8 bits
Colorimetry                      : 4:2:0
Scan type                        : Progressive
Bits/(Pixel*Frame)               : 0.266
Stream size                      : 1.02 GiB (81%)
Writing library                  : XviD 1.1.2 (UTC 2006-11-01)

Audio
ID                               : 1
Format                           : AC-3
Format/Info                      : Audio Coding 3
Codec ID                         : 2000
Duration                         : 1h 16mn
Bit rate mode                    : Constant
Bit rate                         : 448 Kbps
Channel(s)                       : 6 channels
Channel positions                : Front: L C R, Surround: L R, LFE
Sampling rate                    : 48.0 KHz
Stream size                      : 245 MiB (19%)
Alignment                        : Split accross interleaves
Interleave, duration             : 40 ms (1.00 video frame)
Interleave, preload duration     : 500 ms

Thanks to VectraTeam for the source.